<svg id="Layer_1" data-name="Layer 1" xmlns="http://www.w3.org/2000/svg" xmlns:xlink="http://www.w3.org/1999/xlink" width="512" height="512">
    <defs>
        <style>.cls-1{fill:none;}.cls-2{clip-path:url(#clip-path);}</style>
        <clipPath id="clip-path"><rect class="cls-1" x="0" y="0" width="512" height="512"/></clipPath>
    </defs>
    <title>discord</title>
    <g class="cls-2">
        <path d="M0 0 C3.25560827 1.42852364 5.41854803 3.17024362 7.9230957 5.68017578 C8.68100906 6.43501251 9.43892242 7.18984924 10.21980286 7.96755981 C11.03027573 8.7852182 11.8407486 9.60287659 12.67578125 10.4453125 C13.5191655 11.28915497 14.36254974 12.13299744 15.23149109 13.00241089 C17.01664322 14.79058438 18.79936398 16.58118794 20.57983398 18.37402344 C23.28648825 21.09881396 26.00093764 23.81563746 28.71679688 26.53125 C30.45359525 28.27296871 32.18993794 30.01514195 33.92578125 31.7578125 C35.13238152 32.966082 35.13238152 32.966082 36.36335754 34.19876099 C37.13072739 34.97251068 37.89809723 35.74626038 38.6887207 36.54345703 C39.35394241 37.21249054 40.01916412 37.88152405 40.70454407 38.5708313 C41.90567513 39.84192953 43.10152299 41.12031754 44.22932553 42.45690572 C50.67861232 50.0978721 57.893017 57.02812914 64.96434021 64.08459473 C66.50502073 65.6257116 68.04548136 67.16704832 69.58574158 68.70858526 C73.80906811 72.93414412 78.03550015 77.15658476 82.26245153 81.37851715 C86.82382822 85.93557142 91.38231054 90.49551936 95.94114685 95.05511475 C103.83670863 102.95137323 111.73425309 110.84564517 119.6329937 118.73872375 C127.91509697 127.01490544 136.19616127 135.29212446 144.47584724 143.57072449 C144.99108707 144.08589557 145.50632689 144.60106666 146.03718005 145.13184899 C148.65392874 147.74825933 151.27065894 150.36468816 153.88738204 152.9811241 C172.41079541 171.50243832 190.93652505 190.02143412 209.46362305 208.5390625 C227.45991605 226.52616782 245.45515593 244.51432567 263.44897461 262.50390625 C264.00384273 263.05864284 264.55871084 263.61337943 265.13039314 264.18492622 C270.70272004 269.75593457 276.27502557 275.32696429 281.84731544 280.89800966 C293.19822179 292.24637995 304.54927071 303.59460762 315.90040588 314.94274902 C316.42228673 315.46449258 316.94416758 315.98623614 317.481863 316.52379011 C352.31885319 351.35158314 387.15917697 386.1760413 422 421 C420.19042215 424.89262419 417.68961969 427.64949322 414.6953125 430.67578125 C414.17492401 431.20519821 413.65453552 431.73461517 413.11837769 432.28007507 C412.01996594 433.39295341 410.91875652 434.50307652 409.81494141 435.6105957 C408.12537057 437.31212681 406.45534885 439.03142393 404.78515625 440.75195312 C403.71469409 441.83187272 402.64311678 442.91068831 401.5703125 443.98828125 C401.07226105 444.50586502 400.57420959 445.02344879 400.06106567 445.55671692 C398.62548828 446.97387695 398.62548828 446.97387695 396 449 C392.18159885 448.74891854 390.46494435 446.75394287 387.95188904 444.03675842 C387.15343567 443.18317749 386.3549823 442.32959656 385.53233337 441.45014954 C384.6637117 440.50632919 383.79509003 439.56250885 382.90014648 438.59008789 C381.48376692 437.07033045 380.06435257 435.55344348 378.64493287 434.03652561 C377.63592618 432.95771384 376.62788872 431.87799487 375.62075031 430.79743874 C371.88602465 426.79296919 368.11726529 422.8227863 364.32691956 418.87095642 C363.7734343 418.29388775 363.21994905 417.71681909 362.64969152 417.12226349 C360.36160537 414.73830527 358.07218415 412.35563597 355.78163421 409.97404492 C349.33821412 403.27265999 342.9321729 396.54418062 336.6340332 389.70581055 C308.66130145 359.38236138 286.65150709 337.08984452 242.95301819 335.3188324 C238 335 238 335 228 333 C228 359.07 228 385.14 228 412 C213.48 412 198.96 412 184 412 C184 385.93 184 359.86 184 333 C162.1164714 337.18767994 162.1164714 337.18767994 140.2331543 341.37646484 C135.96643066 342.19262695 135.96643066 342.19262695 133.95857239 342.5765686 C132.57902047 342.84046284 131.19950584 343.10455202 129.82002258 343.36880493 C125.21430972 344.2509816 120.60764996 345.12798228 116 346 C114.90918121 346.20747864 113.81836243 346.41495728 112.69448853 346.62872314 C111.71740936 346.81134705 110.7403302 346.99397095 109.73364258 347.18212891 C108.89940262 347.33888092 108.06516266 347.49563293 107.2056427 347.65713501 C104.45098272 348.0853442 101.7814025 348.15034608 99 348 C100.53741379 342.87764898 102.72490509 338.29004831 105.1328125 333.5390625 C105.52951141 332.74849457 105.92621033 331.95792664 106.33493042 331.1434021 C107.59452211 328.63535401 108.85966763 326.13015594 110.125 323.625 C110.98344201 321.91815433 111.84151887 320.21112497 112.69921875 318.50390625 C114.79525835 314.33379921 116.89628118 310.16623797 119 306 C104.86985206 298.53638848 90.69501469 291.16145556 76.50390625 283.81445312 C69.71350392 280.29812996 62.92534777 276.7774697 56.13793945 273.25537109 C50.45368812 270.30633355 44.76669108 267.36282858 39.07421875 264.4296875 C24.94357545 257.14050519 10.91600978 249.69149413 -3 242 C-2.33216479 238.58260454 -0.99884808 235.97565079 0.73046875 232.96484375 C1.28669922 231.98966797 1.84292969 231.01449219 2.41601562 230.00976562 C3.29290039 228.48899414 3.29290039 228.48899414 4.1875 226.9375 C5.90381299 223.94129112 7.61439126 220.94842823 9.26342773 217.91455078 C11 215 11 215 13.11352539 212.56591797 C15.48097825 209.56258024 16.45460849 207.81498747 17 204 C15.16894129 196.25256028 10.8041382 189.19989935 7.0625 182.25 C6.01539262 180.22593838 4.97290987 178.19947762 3.93505859 176.1706543 C1.90284018 172.20927929 -0.14985665 168.25985393 -2.22314453 164.31982422 C-5.59735703 157.88894702 -8.77003255 151.37713146 -11.875 144.8125 C-12.31320068 143.90725586 -12.75140137 143.00201172 -13.20288086 142.06933594 C-16 136.24400834 -16 136.24400834 -16 134 C-8.69681441 133.49552544 -1.39361526 132.99124763 5.90960026 132.48720646 C9.30245151 132.2530384 12.69529843 132.01880792 16.08813477 131.78442383 C18.72137679 131.6025366 21.3546266 131.42076219 23.98788452 131.23910522 C26.54669059 131.06246492 29.10546785 130.8854067 31.66421509 130.70791626 C36.8012376 130.35255212 41.93797761 129.99834987 47.07763672 129.68310547 C48.13464027 129.61741615 48.13464027 129.61741615 49.21299744 129.55039978 C50.93533981 129.44496486 52.65796357 129.34415117 54.38061523 129.24389648 C56.73705026 129.02448381 58.78162563 128.82241115 61 128 C63 125.25 63 125.25 64 122 C62.81535848 118.70281999 60.83564812 116.58822376 58.38070679 114.14019775 C57.62909775 113.38583939 56.87748871 112.63148102 56.10310364 111.85426331 C55.27807846 111.03642868 54.45305328 110.21859406 53.60302734 109.37597656 C52.73466751 108.50732468 51.86630768 107.63867279 50.97163391 106.74369812 C48.59317713 104.36639527 46.21037174 101.99361503 43.8255229 99.62273502 C41.33287405 97.14259535 38.8458942 94.65678433 36.35830688 92.17156982 C31.64850647 87.46798362 26.93363139 82.76951859 22.21691096 78.07287288 C16.84663682 72.72495955 11.48204593 67.37136075 6.11792445 62.01727724 C-4.91507296 51.0051805 -15.95518427 40.00024404 -27 29 C-25.14276623 24.96929876 -22.47282533 22.21715976 -19.3359375 19.140625 C-18.78386627 18.59138367 -18.23179504 18.04214233 -17.66299438 17.47625732 C-15.90498185 15.72940707 -14.1401311 13.98965399 -12.375 12.25 C-11.1792292 11.06426409 -9.98391135 9.8780712 -8.7890625 8.69140625 C-5.86459747 5.78894915 -2.93398126 2.8928359 0 0 Z " fill="#000000" transform="translate(50,36)"/>
        <path d="M0 0 C0.66 0 1.32 0 2 0 C3.25398254 1.54255676 3.25398254 1.54255676 4.68286133 3.73754883 C5.22135208 4.55713577 5.75984283 5.37672272 6.31465149 6.22114563 C6.89788681 7.12398788 7.48112213 8.02683014 8.08203125 8.95703125 C8.99706673 10.35437752 8.99706673 10.35437752 9.93058777 11.779953 C11.89781093 14.7865595 13.85553354 17.79920958 15.8125 20.8125 C17.08981186 22.77192974 18.36779925 24.73091928 19.64648438 26.68945312 C20.58845421 28.13495796 20.58845421 28.13495796 21.54945374 29.60966492 C22.82426458 31.55429318 24.10822121 33.49295564 25.40110779 35.4256134 C28.50079657 40.07184493 31.42960677 44.70283186 34.06469727 49.62963867 C38.67866989 58.34682985 38.67866989 58.34682985 46.40548706 63.97470093 C53.02479509 65.47038088 59.58857147 65.08067652 66.3125 64.6875 C68.32468332 64.64032045 70.33709031 64.60183987 72.34960938 64.57226562 C77.24141819 64.48166181 82.11516269 64.27384163 87 64 C84.37396433 74.55198869 80.81669465 84.80399924 77.36328125 95.10546875 C76.71711847 97.04022071 76.07122334 98.97506208 75.42558289 100.9099884 C73.73662094 105.96928707 72.04405695 111.02737333 70.35070801 116.08520508 C68.6189734 121.25984391 66.89069229 126.43563582 65.16210938 131.61132812 C61.77809476 141.74200892 58.39026892 151.87141066 55 162 C55.33 162.33 55.66 162.66 56 163 C56.76570313 162.03513672 56.76570313 162.03513672 57.546875 161.05078125 C61.86370223 155.68536301 66.29363013 150.52352686 71 145.5 C74.62954468 141.62530036 78.11748022 137.71100178 81.4375 133.5625 C85.46446744 128.54158052 89.79214703 123.87578183 94.20068359 119.19384766 C98.23446686 114.88650762 101.98165077 110.41429477 105.66796875 105.8046875 C108.94046134 101.86892589 112.41914844 98.13888195 115.92797852 94.41381836 C117.98606784 92.22178067 119.93830587 90.08819653 121.6640625 87.62109375 C122.10492188 87.08613281 122.54578125 86.55117187 123 86 C123.99 86 124.98 86 126 86 C126.60585938 87.10214844 127.21171875 88.20429688 127.8359375 89.33984375 C132.31950422 97.46873338 136.85817721 105.55894092 141.5625 113.5625 C141.99159668 114.2939624 142.42069336 115.0254248 142.86279297 115.77905273 C144.67710677 119.07675069 144.67710677 119.07675069 147 122 C149.36823924 122.24432773 151.71507605 122.42754098 154.09008789 122.57250977 C154.83150528 122.62142365 155.57292267 122.67033752 156.33680725 122.72073364 C158.79849232 122.88203344 161.26054679 123.03673084 163.72265625 123.19140625 C165.42519206 123.30167366 167.1277014 123.41235062 168.83018494 123.52342224 C173.31965888 123.81520876 177.80947249 124.1014076 182.29937744 124.38647461 C186.87753592 124.6781273 191.45535409 124.97502116 196.03320312 125.27148438 C205.02180873 125.85280893 214.01078157 126.42823564 223 127 C222.39153384 131.26647189 220.88585198 134.42175083 218.82202148 138.1887207 C218.14847709 139.43022685 217.47535511 140.67196223 216.80259705 141.91389465 C216.44648787 142.56671732 216.09037868 143.21953999 215.72347832 143.89214516 C213.43646052 148.11114646 211.21904698 152.36734878 208.98652554 156.61535358 C207.0261436 160.33578608 205.04455153 164.04152606 203.01342773 167.72387695 C201.04262424 171.30007949 199.13784322 174.90508248 197.27186775 178.53700829 C196.55407991 179.90644603 195.81368781 181.26430279 195.04986382 182.60860634 C190.77357577 189.9271357 190.77357577 189.9271357 190.4862442 198.13612556 C192.11634432 202.49881472 194.38696226 206.41457212 196.9161129 210.3116188 C198.38488242 212.59953498 199.63986002 214.98617946 200.8984375 217.39453125 C201.72037783 218.8691889 202.54573259 220.34195023 203.375 221.8125 C203.79910156 222.57369141 204.22320312 223.33488281 204.66015625 224.11914062 C206.3601154 227.15708025 208.06714287 230.10071431 210 233 C209.83700562 235.05429077 209.83700562 235.05429077 209 237 C207.52700806 238.17300415 207.52700806 238.17300415 205.60791016 239.13134766 C204.8885025 239.49918365 204.16909485 239.86701965 203.42788696 240.2460022 C202.24541885 240.82419205 202.24541885 240.82419205 201.0390625 241.4140625 C200.21989349 241.82860687 199.40072449 242.24315125 198.55673218 242.67025757 C195.91918096 244.00162087 193.27259478 245.31374131 190.625 246.625 C188.91080093 247.48436699 187.19725173 248.3450316 185.484375 249.20703125 C182.91096629 250.50202981 180.33721189 251.79624512 177.76100159 253.08566284 C169.44603761 257.25338885 161.21814891 261.57982839 153.0020752 265.9385376 C150.33399137 267.35310518 147.66137897 268.75899707 144.98828125 270.1640625 C143.79428711 270.79248047 143.79428711 270.79248047 142.57617188 271.43359375 C137.28808594 274.21679688 137.28808594 274.21679688 132 277 C126.49629081 272.41164638 121.39555109 267.53697858 116.33766174 262.46464539 C115.49046898 261.61901262 114.64327622 260.77337985 113.77041095 259.90212184 C111.43568882 257.5706834 109.10320971 255.23704255 106.77168477 252.90240943 C104.25074663 250.37920029 101.72692229 247.85888079 99.20347595 245.33818054 C94.26863409 240.40777602 89.33648807 235.47468328 84.40531636 230.54060831 C80.39988344 226.53291489 76.39347296 222.52620116 72.38636589 218.52018166 C71.8155899 217.9495589 71.24481392 217.37893615 70.65674169 216.7910218 C69.49721266 215.6318125 68.33768139 214.47260544 67.1781479 213.3134006 C56.31782531 202.45592643 45.46056476 191.59539442 34.60435539 180.73380772 C25.28135094 171.4063286 15.95571764 162.08148456 6.62817383 152.75854492 C-4.20446018 141.93125552 -15.03547922 131.10235486 -25.86390358 120.27085525 C-27.01695904 119.11748124 -28.17001658 117.96410932 -29.32307625 116.81073952 C-29.89041805 116.24324344 -30.45775985 115.67574736 -31.04229383 115.09105444 C-35.04847159 111.08401172 -39.0558117 107.07813369 -43.06359673 103.07269859 C-47.94020086 98.19889106 -52.81503558 93.32332215 -57.68756937 88.4454452 C-60.17541238 85.9549644 -62.66406613 83.46530779 -65.15487289 80.97779083 C-67.84813338 78.28803402 -70.53754704 75.59445269 -73.22654724 72.9004364 C-74.02330775 72.10590661 -74.82006826 71.31137682 -75.64097303 70.49277037 C-76.35423563 69.77690003 -77.06749822 69.06102969 -77.80237484 68.3234663 C-78.73535173 67.39024588 -78.73535173 67.39024588 -79.68717664 66.43817252 C-81 65 -81 65 -81 64 C-79.97044189 64.19489014 -78.94088379 64.38978027 -77.88012695 64.59057617 C-66.33839753 66.55167628 -52.87928835 68.23849872 -42 63 C-30.23701006 53.87967569 -23.12954155 38.48826674 -16.15527344 25.66552734 C-12.94863406 19.81321408 -9.44713724 14.18175773 -5.8203125 8.58203125 C-5.26656952 7.71583664 -4.71282654 6.84964203 -4.14230347 5.9571991 C-3.62886383 5.17186295 -3.11542419 4.38652679 -2.58642578 3.57739258 C-2.13421661 2.88390213 -1.68200745 2.19041168 -1.21609497 1.47590637 C-0.81478363 0.98885727 -0.41347229 0.50180817 0 0 Z " fill="#000000" transform="translate(255,42)"/>
    </g>
</svg>