<?xml version="1.0" encoding="UTF-8"?>
<svg version="1.1" xmlns="http://www.w3.org/2000/svg" width="220" height="220">
<path d="M0 0 C1.7281651 1.49825973 3.43712136 3.01899667 5.125 4.5625 C5.96417969 5.32046875 6.80335938 6.0784375 7.66796875 6.859375 C29.31349341 27.39745421 40.47213272 56.10317208 41.52954102 85.64624023 C41.95723402 116.18985714 29.19104146 143.84351436 8.125 165.5625 C-10.96051699 184.9775942 -38.45048704 196.32185096 -65.65209961 196.85498047 C-95.34530641 197.05922868 -122.81605024 188.12264874 -144.34375 167.09765625 C-145.1790625 166.26105469 -146.014375 165.42445313 -146.875 164.5625 C-147.5865625 163.92183594 -148.298125 163.28117188 -149.03125 162.62109375 C-168.19437824 145.01687078 -178.07957859 117.04789617 -179.1953125 91.55859375 C-179.53377684 78.70777174 -178.58765466 66.8775722 -174.875 54.5625 C-174.3490625 52.75458984 -174.3490625 52.75458984 -173.8125 50.91015625 C-164.79874905 23.08645974 -144.00395849 1.19017083 -118.46582031 -12.22998047 C-80.65130597 -31.40248632 -33.17758117 -26.4114078 0 0 Z M-134.2109375 37.61328125 C-138.09978948 42.16853275 -138.37822333 47.00250388 -138.24609375 52.77734375 C-137.53043175 58.14857543 -135.06751222 61.64580488 -131.04296875 65.1640625 C-126.23520931 68.55889066 -122.68251025 69.0810277 -116.875 68.5625 C-116.33939453 70.29306641 -116.33939453 70.29306641 -115.79296875 72.05859375 C-113.34298456 79.40854633 -110.20995313 86.49721753 -107.1875 93.625 C-106.57456186 95.07734404 -105.96192914 96.52981702 -105.34960938 97.98242188 C-103.86159023 101.51061109 -102.36944799 105.03702935 -100.875 108.5625 C-101.66003906 108.70945312 -102.44507813 108.85640625 -103.25390625 109.0078125 C-105.81469386 109.45207473 -105.81469386 109.45207473 -107.8125 110.4375 C-109.875 110.5625 -109.875 110.5625 -112.9375 108.1875 C-113.906875 107.32125 -114.87625 106.455 -115.875 105.5625 C-121.13243671 103.8100211 -126.99797993 103.45741944 -132.234375 105.46875 C-137.62134765 108.62802719 -140.88032358 112.57847074 -142.875 118.5625 C-143.65649767 125.05789865 -142.78625678 130.24720233 -138.875 135.5625 C-135.61860923 139.3149503 -132.66129935 141.27580998 -127.7109375 142.0703125 C-120.94863858 142.30349522 -116.16922965 141.86406159 -110.875 137.5625 C-107.20953148 133.85772351 -105.79563919 130.82329605 -105.35205078 125.64111328 C-104.76336543 122.52963315 -104.41950554 121.03106177 -101.99676514 118.94622803 C-99.39984453 117.57252785 -96.79892729 116.47878747 -94.0546875 115.4296875 C-93.08089142 115.02211212 -92.10709534 114.61453674 -91.10379028 114.1946106 C-87.99961831 112.9051901 -84.87666242 111.6712407 -81.75 110.4375 C-79.63785544 109.57127795 -77.52715562 108.70152413 -75.41796875 107.828125 C-70.25302316 105.6983664 -65.07161622 103.6136775 -59.875 101.5625 C-59.68091553 102.15458755 -59.48683105 102.74667511 -59.28686523 103.35670471 C-57.36585148 109.17605231 -55.23480312 114.8444568 -52.875 120.5 C-52.53210938 121.34884766 -52.18921875 122.19769531 -51.8359375 123.07226562 C-51.32933594 124.2875293 -51.32933594 124.2875293 -50.8125 125.52734375 C-50.36197266 126.61970337 -50.36197266 126.61970337 -49.90234375 127.73413086 C-48.87146546 129.89249916 -48.87146546 129.89249916 -45.875 131.5625 C-42.56413741 131.27975862 -42.56413741 131.27975862 -39.875 129.5625 C-39.19169206 123.13940535 -41.25811492 118.36871378 -43.875 112.5625 C-42.823125 112.39463989 -42.823125 112.39463989 -41.75 112.22338867 C-38.55686657 111.48936929 -35.85771731 110.34285436 -32.875 108.98828125 C-31.740625 108.48619141 -30.60625 107.98410156 -29.4375 107.46679688 C-27.05811519 106.40363974 -24.68309159 105.33066902 -22.3125 104.24804688 C-21.178125 103.74982422 -20.04375 103.25160156 -18.875 102.73828125 C-17.328125 102.04085815 -17.328125 102.04085815 -15.75 101.3293457 C-12.28640669 100.40550513 -10.97274927 100.8674988 -7.875 102.5625 C-7.153125 103.09875 -6.43125 103.635 -5.6875 104.1875 C-0.85264258 106.55120807 4.25317004 106.44498942 9.375 104.87109375 C14.13277187 102.71748111 17.30854976 100.03568568 20.125 95.5625 C22.29302074 89.38001025 22.84220721 83.62396224 20.125 77.5625 C16.57173374 71.96341378 12.42809496 69.51787955 6.125 67.5625 C-0.37820228 66.49833963 -5.59435697 68.89017464 -10.875 72.5625 C-14.70750825 76.4997693 -16.06174976 80.40944805 -16.49609375 85.83203125 C-16.60908813 87.16584839 -16.60908813 87.16584839 -16.72436523 88.52661133 C-16.77407471 89.19845459 -16.82378418 89.87029785 -16.875 90.5625 C-20.78771617 92.2570704 -24.70213566 93.94762435 -28.61816406 95.63452148 C-29.94936572 96.20862244 -31.28010057 96.7838071 -32.61035156 97.36010742 C-34.52546652 98.18956117 -36.44224126 99.01506868 -38.359375 99.83984375 C-39.51147461 100.33734131 -40.66357422 100.83483887 -41.85058594 101.34741211 C-44.21318475 102.29660926 -46.3916313 103.04824017 -48.875 103.5625 C-49.266875 102.325 -49.65875 101.0875 -50.0625 99.8125 C-51.69334826 94.83329179 -53.79494319 90.11572687 -55.984375 85.359375 C-56.98962163 82.20254787 -56.90060046 80.68095014 -55.875 77.5625 C-55.194375 76.510625 -54.51375 75.45875 -53.8125 74.375 C-51.14341595 69.90379716 -51.21392967 65.63070583 -51.875 60.5625 C-53.87593152 53.78156541 -57.13128917 50.74633132 -63.125 47.25 C-68.55360635 45.89284841 -73.80059222 45.88432822 -79.125 47.625 C-84.52750645 51.43131136 -88.50838619 55.81853772 -89.75390625 62.45703125 C-90.11663547 68.76383926 -88.19655768 74.21746256 -84.27734375 79.125 C-79.46272717 84.06031728 -73.37262672 84.19010637 -66.875 84.5625 C-66.38 88.5225 -66.38 88.5225 -65.875 92.5625 C-74.455 96.1925 -83.035 99.8225 -91.875 103.5625 C-92.865 100.5925 -93.855 97.6225 -94.875 94.5625 C-95.78294806 92.36256982 -96.71918704 90.17403599 -97.6875 88 C-101.04770319 80.29427088 -103.98468697 72.45448947 -106.875 64.5625 C-105.68390625 63.22638672 -105.68390625 63.22638672 -104.46875 61.86328125 C-101.05962677 57.75716566 -100.05123043 53.88145478 -99.875 48.5625 C-100.79167718 43.09702852 -102.86779693 38.45521155 -106.875 34.5625 C-116.92684978 28.30801569 -125.81123974 30.16733403 -134.2109375 37.61328125 Z " fill="#000000" transform="translate(178.875,23.4375)"/>
<path d="M0 0 C2.63183484 1.72430559 2.96429365 2.87090782 3.8125 5.9375 C4.0096353 9.15737657 3.84964427 10.41049802 2 13 C-1.51253146 15.34168764 -2.86469356 15.49623677 -7 15 C-9.875 13.4375 -9.875 13.4375 -12 11 C-12.54051695 7.21638135 -12.54762568 4.9909417 -10.6875 1.625 C-7.29444212 -1.64238907 -4.28933391 -1.07233348 0 0 Z " fill="#040605" transform="translate(186,103)"/>
<path d="M0 0 C2.45931605 1.50732274 2.86105399 2.63278554 3.875 5.3125 C4.0431427 8.92756814 2.86997685 10.95263032 1 14 C-2.09173752 15.54586876 -4.59429552 15.29359521 -8 15 C-10.4375 13.4375 -10.4375 13.4375 -12 11 C-12.55802097 7.09385318 -12.58392818 4.94888329 -10.5 1.5625 C-6.75107996 -0.78057502 -4.38964238 -0.48773804 0 0 Z " fill="#030404" transform="translate(64,66)"/>
<path d="M0 0 C4.11289267 0.85685264 5.59686932 2.20235933 8 5.625 C8 9.14455419 7.63108355 11.47420059 5.9375 14.5625 C2.81691564 16.2737882 -0.52441797 16.16455608 -4 15.625 C-7 13.625 -7 13.625 -8 9.8125 C-8.31529243 6.27993785 -8.07822824 5.73878652 -5.9375 2.625 C-3 0.625 -3 0.625 0 0 Z " fill="#020303" transform="translate(55,138.375)"/>
<path d="M0 0 C2.4375 1.5625 2.4375 1.5625 4 4 C4.55802097 7.90614682 4.58392818 10.05111671 2.5 13.4375 C-1.24892004 15.78057502 -3.61035762 15.48773804 -8 15 C-10.73883355 13.40970955 -10.94967699 12.16534703 -11.875 9.125 C-12.02405268 5.39868289 -11.25133987 3.91840353 -9 1 C-5.90826248 -0.54586876 -3.40570448 -0.29359521 0 0 Z " fill="#030404" transform="translate(112,81)"/>
</svg>
